<?xml version="1.0" encoding="UTF-8" standalone="no"?>
<!-- Generator: Adobe Illustrator 16.0.0, SVG Export Plug-In . SVG Version: 6.00 Build 0)  -->

<svg
   xmlns:dc="http://purl.org/dc/elements/1.1/"
   xmlns:cc="http://creativecommons.org/ns#"
   xmlns:rdf="http://www.w3.org/1999/02/22-rdf-syntax-ns#"
   xmlns:svg="http://www.w3.org/2000/svg"
   xmlns="http://www.w3.org/2000/svg"
   xmlns:sodipodi="http://sodipodi.sourceforge.net/DTD/sodipodi-0.dtd"
   xmlns:inkscape="http://www.inkscape.org/namespaces/inkscape"
   version="1.1"
   id="Capa_1"
   x="0px"
   y="0px"
   width="493.349px"
   height="493.349px"
   viewBox="0 0 493.349 493.349"
   style="enable-background:new 0 0 493.349 493.349;"
   xml:space="preserve"
   inkscape:version="0.91 r13725"
   sodipodi:docname="delivery.svg"><metadata
     id="metadata3375"><rdf:RDF><cc:Work
         rdf:about=""><dc:format>image/svg+xml</dc:format><dc:type
           rdf:resource="http://purl.org/dc/dcmitype/StillImage" /></cc:Work></rdf:RDF></metadata><defs
     id="defs3373" /><sodipodi:namedview
     pagecolor="#ffffff"
     bordercolor="#666666"
     borderopacity="1"
     objecttolerance="10"
     gridtolerance="10"
     guidetolerance="10"
     inkscape:pageopacity="0"
     inkscape:pageshadow="2"
     inkscape:window-width="1920"
     inkscape:window-height="1027"
     id="namedview3371"
     showgrid="false"
     inkscape:zoom="1.739134"
     inkscape:cx="246.6745"
     inkscape:cy="246.6745"
     inkscape:window-x="-8"
     inkscape:window-y="-8"
     inkscape:window-maximized="1"
     inkscape:current-layer="Capa_1" /><g
     id="g3337"
     transform="matrix(-1,0,0,1,493.34901,0)"><path
       style="fill:#204a80"
       d="m 487.932,51.1 c -3.613,-3.612 -7.905,-5.424 -12.847,-5.424 l -292.36,0 c -4.948,0 -9.233,1.812 -12.847,5.424 -3.615,3.617 -5.424,7.902 -5.424,12.85 l 0,54.818 -45.683,0 c -5.14,0 -10.71,1.237 -16.705,3.711 -5.996,2.478 -10.801,5.518 -14.416,9.135 l -56.532,56.531 c -2.473,2.474 -4.612,5.327 -6.424,8.565 -1.807,3.23 -3.14,6.14 -3.997,8.705 -0.855,2.572 -1.477,6.089 -1.854,10.566 -0.378,4.475 -0.62,7.758 -0.715,9.853 -0.091,2.092 -0.091,5.71 0,10.85 0.096,5.142 0.144,8.47 0.144,9.995 l 0,91.36 c -4.947,0 -9.229,1.807 -12.847,5.428 C 1.809,347.076 0,351.363 0,356.312 c 0,2.851 0.378,5.376 1.14,7.562 0.763,2.19 2.046,3.949 3.858,5.284 1.807,1.335 3.378,2.426 4.709,3.285 1.335,0.855 3.571,1.424 6.711,1.711 3.14,0.287 5.28,0.479 6.423,0.575 1.143,0.089 3.568,0.089 7.279,0 3.715,-0.096 5.855,-0.144 6.427,-0.144 l 18.271,0 c 0,20.17 7.139,37.397 21.411,51.674 14.277,14.274 31.501,21.413 51.678,21.413 20.175,0 37.401,-7.139 51.675,-21.413 14.277,-14.276 21.411,-31.504 21.411,-51.674 l 109.637,0 c 0,20.17 7.139,37.397 21.412,51.674 14.271,14.274 31.498,21.413 51.675,21.413 20.181,0 37.397,-7.139 51.675,-21.413 14.277,-14.276 21.412,-31.504 21.412,-51.674 0.568,0 2.711,0.048 6.42,0.144 3.713,0.089 6.14,0.089 7.282,0 1.144,-0.096 3.289,-0.288 6.427,-0.575 3.139,-0.287 5.373,-0.855 6.708,-1.711 1.335,-0.856 2.901,-1.95 4.709,-3.285 1.81,-1.335 3.097,-3.094 3.856,-5.284 0.77,-2.187 1.143,-4.712 1.143,-7.562 l 0,-292.359 c 0.004,-4.949 -1.803,-9.229 -5.417,-12.853 z M 153.597,400.28 c -7.229,7.23 -15.797,10.854 -25.694,10.854 -9.898,0 -18.464,-3.62 -25.697,-10.854 -7.233,-7.228 -10.848,-15.797 -10.848,-25.693 0,-9.897 3.619,-18.47 10.848,-25.701 7.232,-7.228 15.798,-10.848 25.697,-10.848 9.897,0 18.464,3.617 25.694,10.848 7.236,7.231 10.853,15.804 10.853,25.701 0,9.896 -3.617,18.465 -10.853,25.693 z m 10.853,-171.877 -109.636,0 0,-8.562 c 0,-2.475 0.855,-4.569 2.568,-6.283 l 55.674,-55.672 c 1.712,-1.714 3.809,-2.568 6.283,-2.568 l 45.111,0 0,73.085 z M 409.41,400.28 c -7.23,7.23 -15.797,10.854 -25.693,10.854 -9.9,0 -18.47,-3.62 -25.7,-10.854 -7.231,-7.228 -10.849,-15.797 -10.849,-25.693 0,-9.897 3.617,-18.47 10.849,-25.701 7.23,-7.228 15.8,-10.848 25.7,-10.848 9.896,0 18.463,3.617 25.693,10.848 7.231,7.235 10.852,15.804 10.852,25.701 0,9.896 -3.614,18.465 -10.852,25.693 z"
       id="path3339"
       inkscape:connector-curvature="0" /></g><g
     id="g3341" /><g
     id="g3343" /><g
     id="g3345" /><g
     id="g3347" /><g
     id="g3349" /><g
     id="g3351" /><g
     id="g3353" /><g
     id="g3355" /><g
     id="g3357" /><g
     id="g3359" /><g
     id="g3361" /><g
     id="g3363" /><g
     id="g3365" /><g
     id="g3367" /><g
     id="g3369" /></svg>